@startuml class-diagram

title libcpptest public API class diagram

package cpptest::integration_test {

    class Fail {
        == public ==
        + Fail(string)
    }

    class SingleTest {
        == public ==
        + run() : bool
        + setExitOnFail(bool) : void
        + setSkipCleanUp(bool) : void
        + setKeepSandBox(bool) : void
        + setKeepOldSandBox(bool) : void
        == protected ==
        # SingleTest(string)
        # SingleTest(string, Logger)
        == private ==
        .. override these ..
        - {abstract} setup() : void
        - {abstract} perform() : void
        - {abstract} evaluate() : void
        - {abstract} cleanUp() : void
    }

    class MultiTest {
        == public ==
        + run() : bool
        + addTestCase(TestCase) : void
        + setExitOnFail(bool) : void
        + setSkipCleanUp(bool) : void
        + setKeepSandBox(bool) : void
        + setKeepOldSandBox(bool) : void
        == protected ==
        # MultiTest(string)
        # MultiTest(string, Logger)
        == private ==
        .. override these ..
        - {abstract} setup() : void
        - {abstract} cleanUp() : void
    }

    struct TestCase {
        + name : string
        + perform : void(void)*
        + evaluate : void(void)*
    }

}

package <<external>> {
    package cpplog::logger {
        class Logger
        hide Logger attributes
        hide Logger methods
    }

    package std {
        class logic_error
        hide logic_error attributes
        hide logic_error methods
    }
}

MultiTest o-- "*" TestCase

MultiTest o-- "1" Logger
SingleTest o-- "1" Logger

Fail --|> logic_error

MultiTest -- Fail 
SingleTest -- Fail 

@enduml